<?xml version="1.0" encoding="UTF-8" standalone="no"?>
<!-- Created with Inkscape (http://www.inkscape.org/) -->

<svg
   width="210mm"
   height="297mm"
   viewBox="0 0 210 297"
   version="1.1"
   id="svg1"
   xmlns="http://www.w3.org/2000/svg"
   xmlns:svg="http://www.w3.org/2000/svg">
  <defs
     id="defs1" />
  <g
     id="layer1">
    <path
       d="m -72.639702,-5.666149 v 14.60722 h -2.568666 V -5.666149 H -79.122 v -2.414325 h 10.384906 v 2.414325 z M -66.918081,-9.679 h 2.480471 v 8.775356 q 1.322918,-1.190626 2.921444,-1.190626 1.819012,0 2.91042,1.179601 0.926042,1.025262 0.926042,3.274222 v 6.581518 h -2.480471 V 2.591064 q 0,-1.289845 -0.463021,-1.863109 -0.451997,-0.584289 -1.466235,-0.584289 -1.300869,0 -1.830036,0.804775 -0.518143,0.815799 -0.518143,2.800176 v 5.192454 h -2.480471 z m 12.380308,7.882386 h 2.480471 v 0.959116 q 0.683508,-0.716581 1.212675,-0.981165 0.540191,-0.275607 1.278821,-0.275607 0.981164,0 2.050523,0.63941 l -1.135505,2.271009 q -0.705556,-0.507118 -1.37804,-0.507118 -2.028474,0 -2.028474,3.06476 v 5.56728 h -2.480471 z m 18.068854,5.953131 h -7.694973 q 0.09922,1.322918 0.859897,2.105645 0.760677,0.771702 1.951304,0.771702 0.926042,0 1.53238,-0.440973 0.595313,-0.440973 1.355991,-1.631599 l 2.09462,1.168578 q -0.48507,0.826824 -1.025262,1.422137 -0.540191,0.584288 -1.157553,0.97014 -0.617362,0.374826 -1.333942,0.551215 -0.716581,0.176389 -1.554429,0.176389 -2.403301,0 -3.858511,-1.543404 -1.45521,-1.554429 -1.45521,-4.123094 0,-2.546618 1.411113,-4.123095 1.422137,-1.554428 3.770316,-1.554428 2.370228,0 3.748268,1.510331 1.367015,1.499307 1.367015,4.156167 z m -2.546617,-2.028474 q -0.518143,-1.984377 -2.50252,-1.984377 -0.451997,0 -0.848873,0.143316 -0.396875,0.132292 -0.727604,0.396875 -0.319706,0.25356 -0.551216,0.617362 -0.231511,0.363803 -0.352778,0.826824 z m 15.037168,2.028474 h -7.694973 q 0.09922,1.322918 0.859897,2.105645 0.760677,0.771702 1.951304,0.771702 0.926042,0 1.53238,-0.440973 0.595313,-0.440973 1.355991,-1.631599 l 2.09462,1.168578 q -0.48507,0.826824 -1.025262,1.422137 -0.540191,0.584288 -1.157553,0.97014 -0.617362,0.374826 -1.333942,0.551215 -0.716581,0.176389 -1.554429,0.176389 -2.403301,0 -3.858511,-1.543404 -1.45521,-1.554429 -1.45521,-4.123094 0,-2.546618 1.411113,-4.123095 1.422137,-1.554428 3.770316,-1.554428 2.370228,0 3.748268,1.510331 1.367015,1.499307 1.367015,4.156167 z m -2.546617,-2.028474 q -0.518143,-1.984377 -2.50252,-1.984377 -0.451997,0 -0.848873,0.143316 -0.396875,0.132292 -0.727604,0.396875 -0.319706,0.25356 -0.551216,0.617362 -0.231511,0.363803 -0.352778,0.826824 z m 11.851141,-1.774915 q 0,-3.593927 2.634812,-6.173618 2.623787,-2.57969 6.305909,-2.57969 3.638025,0 6.239761,2.601739 2.61277,2.601739 2.61277,6.250788 0,3.671097 -2.62379,6.228739 -2.634814,2.568665 -6.361033,2.568665 -3.29627,0 -5.920058,-2.282033 -2.888371,-2.524569 -2.888371,-6.61459 z m 2.590715,0.03307 q 0,2.822225 1.896182,4.641237 1.885158,1.819012 4.354605,1.819012 2.678909,0 4.51997,-1.852085 1.84106,-1.874134 1.84106,-4.564067 0,-2.723006 -1.819011,-4.564067 -1.807988,-1.852085 -4.475873,-1.852085 -2.65686,0 -4.486897,1.852085 -1.830036,1.830036 -1.830036,4.51997 z m 26.315047,-1.719794 v 3.296271 q -0.84887,-1.036286 -1.52136,-1.422137 -0.66145,-0.396875 -1.55442,-0.396875 -1.40009,0 -2.32613,0.981164 -0.92605,0.981164 -0.92605,2.458423 0,1.510331 0.89297,2.480471 0.904,0.97014 2.30408,0.97014 0.89297,0 1.57648,-0.385851 0.66146,-0.374827 1.55443,-1.45521 v 3.274222 q -1.51033,0.782726 -3.02066,0.782726 -2.4915,0 -4.16719,-1.60955 -1.6757,-1.620574 -1.6757,-4.023875 0,-2.403301 1.69774,-4.056949 1.69775,-1.653647 4.1672,-1.653647 1.5875,0 2.99861,0.760677 z m 4.96094,1.852086 v 8.422578 h -2.48047 V 0.51849 h -1.05834 v -2.315107 h 1.05834 v -3.935681 h 2.48047 v 3.935681 h 1.92925 V 0.51849 Z m 11.72987,-2.315107 h 2.4915 V 8.941071 h -2.4915 V 7.81659 q -1.53238,1.433161 -3.29627,1.433161 -2.22691,0 -3.68212,-1.60955 -1.44419,-1.642623 -1.44419,-4.101046 0,-2.414325 1.44419,-4.023875 1.44418,-1.60955 3.61597,-1.60955 1.87414,0 3.36242,1.543404 z m -5.88698,5.335769 q 0,1.543405 0.82682,2.513545 0.84887,0.981164 2.13872,0.981164 1.37804,0 2.22691,-0.948091 0.84887,-0.981165 0.84887,-2.491496 0,-1.510331 -0.84887,-2.491496 -0.84887,-0.959115 -2.20486,-0.959115 -1.27883,0 -2.13872,0.97014 -0.84887,0.981164 -0.84887,2.425349 z m 13.04176,-5.335769 2.77813,6.030301 2.7671,-6.030301 h 2.78915 l -5.5783,11.476314 -5.53421,-11.476314 z m 19.4028,5.953131 h -7.69497 q 0.0992,1.322918 0.8599,2.105645 0.76067,0.771702 1.9513,0.771702 0.92604,0 1.53238,-0.440973 0.59531,-0.440973 1.35599,-1.631599 l 2.09462,1.168578 q -0.48507,0.826824 -1.02526,1.422137 -0.54019,0.584288 -1.15755,0.97014 -0.61736,0.374826 -1.33395,0.551215 -0.71658,0.176389 -1.55442,0.176389 -2.4033,0 -3.85851,-1.543404 -1.45521,-1.554429 -1.45521,-4.123094 0,-2.546618 1.41111,-4.123095 1.42213,-1.554428 3.77031,-1.554428 2.37023,0 3.74827,1.510331 1.36702,1.499307 1.36702,4.156167 z M 54.933698,2.12804 q -0.51815,-1.984377 -2.50252,-1.984377 -0.452,0 -0.84888,0.143316 -0.39687,0.132292 -0.7276,0.396875 -0.31971,0.25356 -0.55122,0.617362 -0.23151,0.363803 -0.35278,0.826824 z m 24.18735,-5.423964 v 1.94028 h -2.67891 l -0.39687,3.163979 h 2.4474 v 1.940279 h -2.68994 l -0.65043,5.269624 -1.94028,-0.253559 0.62838,-5.016065 h -3.27422 l -0.66146,5.269624 -1.96233,-0.253559 0.62839,-5.060162 h -2.51354 V 1.808335 h 2.78915 l 0.39687,-3.163979 h -2.54661 v -1.94028 h 2.78915 l 0.60634,-4.938894 1.92925,0.253559 -0.58429,4.685335 h 3.25218 l 0.61736,-4.938894 1.92925,0.253559 -0.58429,4.685335 z m -4.67431,1.94028 h -3.24115 l -0.39687,3.163979 h 3.26319 z"
       id="text1"
       style="font-size:22.5778px;font-family:Futura;-inkscape-font-specification:Futura;text-align:center;text-anchor:middle;fill:none;stroke:#ff00ff;stroke-width:0.2"
       aria-label="Three Octave #" />
  </g>
</svg>
